<svg width="31" height="25" viewBox="0 0 31 25" fill="none" xmlns="http://www.w3.org/2000/svg">
<path d="M30.5313 3.18858C29.4256 3.66553 28.2224 4.0088 26.983 4.14249C28.2698 3.37805 29.2334 2.17036 29.693 0.746003C28.4856 1.46428 27.1628 1.96796 25.7834 2.23468C25.2069 1.61834 24.5097 1.12735 23.7351 0.79228C22.9605 0.457212 22.1252 0.285253 21.2813 0.287117C17.8667 0.287117 15.1206 3.05489 15.1206 6.45137C15.1206 6.92833 15.1785 7.40528 15.2724 7.86417C10.1596 7.59679 5.59965 5.15421 2.56811 1.41446C2.01573 2.35794 1.72626 3.43221 1.72983 4.5255C1.72983 6.66456 2.81743 8.55069 4.47592 9.65997C3.49854 9.62148 2.54405 9.35283 1.69008 8.87589V8.95177C1.69008 11.9472 3.80746 14.4295 6.62944 15.0004C6.09958 15.138 5.55451 15.2084 5.00707 15.21C4.606 15.21 4.2266 15.1702 3.8436 15.116C4.62407 17.5586 6.89682 19.3327 9.60317 19.3905C7.48578 21.049 4.83364 22.0246 1.95385 22.0246C1.43715 22.0246 0.960199 22.0065 0.465179 21.9487C3.19682 23.7012 6.43793 24.7129 9.92836 24.7129C21.2596 24.7129 27.46 15.3256 27.46 7.17764C27.46 6.91026 27.46 6.64288 27.4419 6.3755C28.6415 5.49747 29.693 4.40987 30.5313 3.18858Z" fill="white"/>
</svg>
